<svg class="svg-icon" style="width: 1em; height: 1em;vertical-align: middle;fill: currentColor;overflow: hidden;" viewBox="0 0 1024 1024" version="1.1" xmlns="http://www.w3.org/2000/svg"><path d="M810.666667 981.333333H213.333333a85.426667 85.426667 0 0 1-85.333333-85.333333V576a21.333333 21.333333 0 0 1 42.666667 0v320a42.713333 42.713333 0 0 0 42.666666 42.666667h597.333334a42.713333 42.713333 0 0 0 42.666666-42.666667V576a21.333333 21.333333 0 0 1 42.666667 0v320a85.426667 85.426667 0 0 1-85.333333 85.333333z m170.666666-448a21.266667 21.266667 0 0 1-15.086666-6.246666l-432.8-432.8a30.32 30.32 0 0 0-42.893334 0l-432.8 432.8a21.333333 21.333333 0 0 1-30.173333-30.173334l432.8-432.8a73.093333 73.093333 0 0 1 103.24 0l432.8 432.8A21.333333 21.333333 0 0 1 981.333333 533.333333z" fill="#5C5C66" /></svg>